<?xml version="1.0" standalone="no"?>
<!DOCTYPE svg PUBLIC "-//W3C//DTD SVG 20010904//EN"
 "http://www.w3.org/TR/2001/REC-SVG-20010904/DTD/svg10.dtd">
<svg version="1.0" xmlns="http://www.w3.org/2000/svg"
 width="300.000000pt" height="174.000000pt" viewBox="0 0 300.000000 174.000000"
 preserveAspectRatio="xMidYMid meet">

<g transform="translate(0.000000,174.000000) scale(0.100000,-0.100000)"
fill="#000000" stroke="none">
<path d="M1335 1684 c-241 -24 -400 -55 -565 -111 -624 -212 -869 -651 -576
-1032 58 -75 120 -130 224 -198 388 -255 1020 -350 1580 -237 335 67 613 200
784 375 200 205 232 455 86 680 -158 246 -549 442 -1006 505 -104 14 -447 26
-527 18z m235 -92 c0 -66 -1 -68 -26 -70 -34 -3 -54 14 -54 44 0 31 27 56 52
48 14 -4 18 -3 13 5 -7 12 0 41 10 41 3 0 5 -31 5 -68z m155 -49 c-3 -19 -10
-31 -14 -29 -9 6 -4 101 7 126 9 21 15 -57 7 -97z m-377 40 c6 -32 8 -60 5
-63 -8 -8 -23 25 -24 55 -1 28 -2 26 -15 -14 -7 -24 -16 -46 -19 -49 -2 -3
-14 15 -25 39 l-20 44 0 -42 c0 -24 -4 -43 -10 -43 -6 0 -10 27 -10 60 0 73
18 80 45 18 l17 -43 8 31 c19 83 34 85 48 7z m529 -23 c-12 -71 -31 -83 -22
-12 9 63 15 83 24 78 4 -3 3 -32 -2 -66z m-417 34 c10 -11 11 -23 4 -42 -17
-48 -84 -38 -84 12 0 43 53 63 80 30z m214 0 c11 -28 6 -34 -25 -34 -36 0 -35
-21 2 -30 19 -5 21 -7 8 -12 -40 -15 -78 49 -47 80 17 17 55 15 62 -4z m266 6
c0 -5 -4 -10 -10 -10 -5 0 -10 5 -10 10 0 6 5 10 10 10 6 0 10 -4 10 -10z
m-900 -10 c0 -5 -4 -10 -10 -10 -5 0 -10 5 -10 10 0 6 5 10 10 10 6 0 10 -4
10 -10z m734 -2 c16 -54 17 -54 32 -20 7 18 18 31 23 28 11 -7 -30 -87 -43
-83 -13 4 -36 87 -25 87 5 0 11 -6 13 -12z m-839 -100 c7 -35 5 -36 -26 -43
-25 -6 -35 -3 -46 11 -24 33 -9 74 28 74 12 0 15 7 13 28 l-4 27 14 -30 c8
-17 17 -47 21 -67z m211 65 c3 -16 7 -33 9 -40 4 -13 -49 -28 -65 -18 -18 11
-11 35 15 47 29 13 23 32 -7 22 -14 -4 -18 -2 -14 5 4 6 18 11 31 11 19 0 26
-7 31 -27z m780 -15 c-7 -44 -12 -55 -21 -46 -9 9 7 88 18 88 6 0 7 -16 3 -42z
m-871 -20 c4 -23 3 -38 -3 -38 -9 0 -22 45 -22 78 0 28 18 -1 25 -40z m963 40
c7 -7 12 -21 12 -31 0 -16 -5 -19 -30 -13 -37 7 -40 -11 -4 -25 33 -12 24 -24
-10 -15 -34 8 -45 50 -21 76 21 23 36 25 53 8z m-1025 -19 c-7 -7 -9 -27 -6
-48 7 -48 -13 -30 -22 21 -6 30 -4 37 12 40 23 6 29 0 16 -13z m1122 -1 c14
-6 25 -14 25 -17 0 -22 -23 -83 -36 -96 -19 -19 -25 -19 -50 1 -18 15 -18 15
3 9 34 -9 49 5 21 19 -29 14 -35 52 -12 77 20 22 17 22 49 7z m182 -20 c-3 -7
-14 -37 -23 -65 -16 -47 -34 -70 -34 -44 0 20 43 121 52 121 5 0 7 -6 5 -12z
m-61 -20 c5 -8 0 -9 -15 -5 -21 5 -51 -14 -51 -33 0 -5 10 -16 23 -25 l22 -16
-24 3 c-31 4 -44 39 -25 67 16 23 58 28 70 9z m-1411 -34 c18 -43 18 -44 6
-44 -5 0 -14 14 -20 30 -9 28 -29 39 -44 24 -3 -4 -2 -15 4 -26 6 -10 8 -27 6
-36 -3 -13 -6 -12 -14 8 -24 57 -24 68 -6 73 42 11 53 6 68 -29z m1496 -33
c-16 -29 -13 -41 8 -41 12 0 23 11 30 30 5 17 15 30 21 30 7 0 10 -3 8 -7 -2
-5 -10 -25 -18 -46 -11 -30 -18 -36 -35 -31 -41 13 -48 28 -30 70 10 21 19 34
22 27 2 -7 0 -21 -6 -32z m-1597 -7 c9 -20 16 -37 14 -38 -2 0 -13 -7 -26 -14
-43 -24 -72 23 -32 51 24 17 15 30 -11 16 -18 -9 -26 0 -12 14 19 19 50 5 67
-29z m1044 25 c537 -58 941 -294 960 -561 4 -62 2 -74 -27 -132 -42 -86 -103
-152 -203 -219 -174 -117 -407 -196 -682 -232 -152 -20 -449 -20 -600 0 -434
57 -773 227 -887 445 -19 36 -24 61 -24 125 0 70 4 87 29 133 35 63 100 133
177 189 160 118 461 221 739 252 110 12 406 13 518 0z m692 5 c0 -3 -5 -14
-10 -25 -8 -15 -7 -19 4 -19 9 0 20 -9 26 -21 16 -28 -11 -69 -45 -69 -14 0
-25 5 -25 10 0 6 -7 10 -16 10 -12 0 -8 13 17 60 27 51 49 75 49 54z m-1842
-49 c-2 -15 4 -30 17 -40 20 -16 20 -16 -2 -12 -18 4 -23 1 -23 -14 0 -10 -5
-19 -11 -19 -7 0 -9 11 -6 26 3 20 -1 28 -19 36 -13 6 -21 15 -18 19 3 5 14 4
25 -1 16 -9 19 -7 19 10 0 11 5 20 11 20 6 0 9 -11 7 -25z m-187 -59 c-10 -12
-7 -23 19 -61 37 -54 24 -61 -16 -7 -15 20 -29 39 -30 41 -2 2 -10 -1 -17 -7
-8 -7 -17 -9 -20 -5 -4 3 10 18 31 34 38 28 54 31 33 5z m119 -7 c22 -29 22
-31 4 -44 -44 -33 -83 -3 -48 37 19 21 19 21 -10 14 -26 -6 -28 -5 -17 8 21
25 48 19 71 -15z m618 -1071 c15 -15 16 -54 2 -63 -6 -4 -7 -23 -4 -46 4 -26
3 -39 -5 -39 -6 0 -11 9 -11 19 0 54 -34 70 -45 21 -9 -41 -29 -39 -21 3 3 17
8 51 12 75 6 37 10 42 33 42 15 0 32 -5 39 -12z m687 -7 c3 -5 -7 -11 -22 -13
-38 -4 -35 -22 7 -50 40 -27 48 -49 25 -72 -18 -18 -65 -22 -65 -6 0 6 11 10
24 10 48 0 44 39 -4 57 -32 12 -41 48 -18 71 14 14 44 16 53 3z m-551 -18 c4
-16 26 -131 26 -140 0 -2 -4 -3 -9 -3 -5 0 -12 11 -15 25 -8 32 -51 35 -61 5
-3 -11 -11 -20 -16 -20 -12 0 -6 22 27 96 25 56 39 67 48 37z m97 -29 c4 -16
10 -42 14 -59 6 -29 8 -27 27 33 19 57 38 81 38 49 0 -27 -49 -132 -61 -132
-7 0 -18 20 -24 45 -6 25 -15 58 -19 73 -5 21 -3 28 6 25 6 -2 15 -18 19 -34z
m199 26 c0 -5 -11 -10 -25 -10 -20 0 -25 -5 -25 -25 0 -20 5 -25 26 -25 14 0
23 -4 19 -10 -3 -5 -15 -10 -26 -10 -14 0 -19 -7 -19 -25 0 -21 5 -25 30 -25
17 0 30 -4 30 -10 0 -5 -18 -10 -40 -10 l-40 0 0 80 0 80 35 0 c19 0 35 -4 35
-10z m85 -55 c6 -64 7 -65 36 -65 16 0 29 -4 29 -10 0 -5 -17 -10 -39 -10
l-38 0 -7 53 c-8 72 -8 97 3 97 5 0 12 -29 16 -65z"/>
<path d="M1517 1594 c-4 -4 -7 -18 -7 -31 0 -17 6 -23 21 -23 16 0 20 5 17 27
-3 26 -18 39 -31 27z"/>
<path d="M1407 1593 c-12 -12 -7 -51 7 -56 20 -8 39 18 31 43 -6 20 -25 26
-38 13z"/>
<path d="M1627 1594 c-13 -13 -7 -23 13 -21 11 1 19 6 17 11 -4 13 -21 18 -30
10z"/>
<path d="M877 1513 c-20 -20 4 -66 29 -56 17 6 18 35 2 51 -14 14 -22 15 -31
5z"/>
<path d="M1110 1530 c-12 -7 -12 -12 -3 -21 10 -10 14 -9 19 5 8 22 2 27 -16
16z"/>
<path d="M1980 1540 c0 -5 9 -10 21 -10 11 0 17 5 14 10 -3 6 -13 10 -21 10
-8 0 -14 -4 -14 -10z"/>
<path d="M2077 1523 c-4 -3 -7 -17 -7 -30 0 -28 35 -33 42 -5 9 33 -14 56 -35
35z"/>
<path d="M690 1410 c-12 -7 -12 -12 -3 -21 10 -10 14 -9 19 5 8 22 2 27 -16
16z"/>
<path d="M860 1271 c8 -5 26 -12 40 -15 l25 -7 -25 15 c-14 9 -32 15 -40 15
-13 0 -13 -1 0 -8z"/>
<path d="M961 1236 c6 -6 393 -156 402 -156 2 0 3 10 2 22 -2 25 -52 46 -112
47 -17 1 -89 21 -160 46 -127 45 -140 49 -132 41z"/>
<path d="M1570 1115 c18 -22 5 -49 -22 -42 -20 6 -20 5 -5 -10 13 -13 19 -14
31 -3 21 17 20 56 0 64 -14 5 -15 4 -4 -9z"/>
<path d="M1630 1120 c0 -8 60 -23 67 -17 1 2 -13 8 -32 14 -19 6 -35 8 -35 3z"/>
<path d="M1443 1088 c1 -8 -7 -12 -20 -11 -38 4 -26 -15 17 -28 22 -7 40 -18
40 -24 0 -7 22 -17 50 -22 39 -8 52 -7 61 4 9 11 9 12 -4 7 -25 -9 -85 15 -92
37 -11 35 -59 68 -52 37z"/>
<path d="M1760 1086 c0 -2 9 -6 20 -9 11 -3 20 -1 20 4 0 5 -9 9 -20 9 -11 0
-20 -2 -20 -4z"/>
<path d="M1737 1011 c-6 -25 -12 -24 268 -56 121 -14 234 -28 250 -31 17 -4
27 -3 23 1 -4 4 -87 18 -185 30 -245 32 -318 45 -302 56 11 7 11 9 -3 9 -9 0
-23 3 -31 6 -9 3 -16 -2 -20 -15z"/>
<path d="M700 820 l0 -45 75 3 75 4 0 -149 c0 -103 -4 -153 -12 -161 -9 -9 2
-12 53 -11 35 0 58 3 52 6 -10 3 -13 45 -13 160 l0 155 75 -4 75 -3 0 44 c0
35 -3 42 -12 33 -17 -17 -339 -17 -356 0 -9 9 -12 2 -12 -32z"/>
<path d="M2040 839 c-116 -35 -173 -166 -120 -275 52 -106 210 -143 338 -78
26 13 53 24 60 24 10 0 8 9 -7 32 -21 34 -41 48 -41 29 0 -22 -78 -51 -136
-51 -75 0 -117 26 -140 86 -23 60 -8 112 42 151 30 22 46 27 97 27 64 -1 123
-22 134 -50 8 -22 19 -17 40 18 l19 32 -61 29 c-67 33 -165 44 -225 26z"/>
<path d="M1245 650 l0 -190 45 0 45 0 -3 132 -2 133 67 -127 c38 -71 70 -128
73 -128 3 0 21 28 40 63 19 34 51 91 72 127 l38 65 -2 -133 -3 -132 54 0 c43
0 52 3 43 12 -17 17 -17 354 1 361 6 3 -20 6 -60 6 -58 1 -71 -2 -67 -13 4
-11 -83 -184 -105 -208 -9 -11 -114 191 -107 208 4 11 -7 14 -62 14 l-67 0 0
-190z"/>
<path d="M2426 1385 c-20 -20 -20 -29 -2 -44 11 -9 18 -8 30 4 20 20 20 29 2
44 -11 9 -18 8 -30 -4z"/>
<path d="M515 1320 c-8 -13 4 -32 16 -25 12 8 12 35 0 35 -6 0 -13 -4 -16 -10z"/>
<path d="M1118 235 c-4 -21 -2 -25 19 -25 20 0 24 4 21 22 -4 33 -34 35 -40 3z"/>
<path d="M1271 200 c-9 -26 -8 -30 8 -30 14 0 17 6 13 30 -2 17 -6 30 -7 30
-2 0 -8 -13 -14 -30z"/>
</g>
</svg>
